<svg width="551" height="316" viewBox="0 0 551 316" fill="none" xmlns="http://www.w3.org/2000/svg">
<mask id="mask0_14_343" style="mask-type:alpha" maskUnits="userSpaceOnUse" x="0" y="0" width="551" height="316">
<rect width="551" height="316" fill="#D9D9D9"/>
</mask>
<g mask="url(#mask0_14_343)">
<path d="M-0.442917 282.503L137.401 258.089L275.245 139.006L422.21 185.344L550.932 0.491287V315.886H413.089H275.245H137.401H-0.442917V282.503Z" fill="#8FA3FF"/>
<path d="M-0.442917 315.886L137.401 272.04L275.245 213.744L413.089 229.19L550.932 204.775V315.886H413.089H275.245H137.401H-0.442917Z" fill="#326CF8"/>
<path d="M-4.50002 285.5L136.894 257.59L275.752 139.006L422.717 184.845L546.878 -1.99998" stroke="#4A68FF" stroke-width="10"/>
<path d="M0.165084 318L142.857 272.636L275.885 214.337L343.96 223.45L412.034 232.564L553.218 203.744" stroke="#004EF4" stroke-width="10"/>
</g>
</svg>
